<?xml version="1.0"?>
<svg xmlns="http://www.w3.org/2000/svg" xmlns:xlink="http://www.w3.org/1999/xlink" version="1.1" id="Capa_1" x="0px" y="0px" viewBox="0 0 480 480" style="enable-background:new 0 0 480 480;" xml:space="preserve" width="512px" height="512px"><g><g>
	<g>
		<rect x="80.044" y="408" width="16" height="72" data-original="#000000" class="active-path" data-old_color="#ffffff" fill="#ffffff"/>
	</g>
</g><g>
	<g>
		<rect x="175.852" y="408" width="16" height="72" data-original="#000000" class="active-path" data-old_color="#ffffff" fill="#ffffff"/>
	</g>
</g><g>
	<g>
		<rect x="272.044" y="408" width="16" height="72" data-original="#000000" class="active-path" data-old_color="#ffffff" fill="#ffffff"/>
	</g>
</g><g>
	<g>
		<rect x="368.044" y="408" width="16" height="72" data-original="#000000" class="active-path" data-old_color="#ffffff" fill="#ffffff"/>
	</g>
</g><g>
	<g>
		<path d="M390.38,193.08L390.38,193.08c-14.144-42.56-62.832-73-118.128-73.08c-0.064,0-0.12,0-0.184,0    c-11.616,0-22.792,1.544-33.36,4.328c-8.72-44.144-47.544-76.376-94.192-76.448c-0.048,0-0.08,0-0.128,0    c-52.968,0-96.112,42.512-96.184,94.832c-0.048,34.184,18.008,64.864,47.048,81.8c-1.624,2.296-3.136,4.656-4.376,7.136    c-0.104,0-0.2,0.008-0.304,0.008l-2.464,0.032c-0.048,0-0.088,0-0.136,0c-48.456,0-87.904,35.792-87.968,79.84    c-0.032,21.416,9.072,41.528,25.624,56.656c16.504,15.08,38.616,23.4,62.256,23.432L368.132,392    c60.56-1.976,111.792-49.504,111.864-103.792C480.068,241.744,443.476,203.216,390.38,193.08z M64.212,142.728    c0.064-43.504,36.024-78.848,80.184-78.848h0.104c39.6,0.056,72.416,27.84,78.88,65.584c-28.752,11.8-51.096,33.96-61.136,62.568    c-22.112,1.344-41.704,8.88-55.616,20.448C80.564,198.832,64.164,172.376,64.212,142.728z M367.884,376l-279.976-0.392    c-19.648-0.024-37.936-6.856-51.488-19.24C23.228,344.32,15.98,328.4,16.004,311.536c0.048-35.232,32.32-63.856,71.952-63.856    h0.12l2.824-0.04c1.568-0.024,3.2-0.072,4.592,0.032c3.56,0.248,6.888-1.856,8.12-5.224c7.336-20.016,33.912-34.256,64.64-34.624    c3.528-0.048,6.616-2.4,7.592-5.792c11.344-39.52,50-66.032,96.224-66.032h0.16c49.496,0.072,94.28,28.504,104.168,66.152    c0.808,3.088,3.368,5.392,6.52,5.872c47.8,7.376,81.152,40.336,81.088,80.168C463.94,334.08,419.796,374.296,367.884,376z" data-original="#000000" class="active-path" data-old_color="#ffffff" fill="#ffffff"/>
	</g>
</g><g>
	<g>
		<rect x="48.343" y="34.774" transform="matrix(0.7081 -0.7061 0.7061 0.7081 -20.0918 54.8887)" width="16" height="33.944" data-original="#000000" class="active-path" data-old_color="#ffffff" fill="#ffffff"/>
	</g>
</g><g>
	<g>
		<rect x="23.127" y="211.727" transform="matrix(0.7082 -0.706 0.706 0.7082 -143.429 92.422)" width="33.936" height="16" data-original="#000000" class="active-path" data-old_color="#ffffff" fill="#ffffff"/>
	</g>
</g><g>
	<g>
		<rect x="215.366" y="44.008" transform="matrix(0.7081 -0.7061 0.7061 0.7081 31.0952 179.2364)" width="33.944" height="16" data-original="#000000" class="active-path" data-old_color="#ffffff" fill="#ffffff"/>
	</g>
</g><g>
	<g>
		<rect x="136.044" width="16" height="32" data-original="#000000" class="active-path" data-old_color="#ffffff" fill="#ffffff"/>
	</g>
</g><g>
	<g>
		<rect x="0.044" y="136" width="32" height="16" data-original="#000000" class="active-path" data-old_color="#ffffff" fill="#ffffff"/>
	</g>
</g></g> </svg>
